<?xml version="1.0" encoding="iso-8859-1"?>
<!-- Generator: Adobe Illustrator 19.0.0, SVG Export Plug-In . SVG Version: 6.00 Build 0)  -->
<svg version="1.1" id="Capa_1" xmlns="http://www.w3.org/2000/svg" xmlns:xlink="http://www.w3.org/1999/xlink" x="0px" y="0px"
	 viewBox="0 0 512 512" style="enable-background:new 0 0 512 512;" xml:space="preserve">
<circle style="fill:#78938C;" cx="256" cy="256" r="256"/>
<path style="fill:#425E61;" d="M511.914,262.661L338.986,89.733L81,403.667l95.839,95.839C201.769,507.605,228.369,512,256,512
	C395.158,512,508.382,400.967,511.914,262.661z"/>
<path style="fill:#FFE45C;" d="M386.667,326.167H125.333v-135.5C125.333,118.501,183.835,60,256,60l0,0
	c72.165,0,130.667,58.501,130.667,130.667V326.167z"/>
<path style="fill:#FFBC36;" d="M386.667,190.667C386.667,118.501,328.165,60,256,60l0,0c-0.143,0-0.285,0.005-0.428,0.005v266.161
	h131.095V190.667z"/>
<g>
	<rect x="81" y="201" style="fill:#F9AC23;" width="88.67" height="202.67"/>
	<rect x="342.33" y="201" style="fill:#F9AC23;" width="88.67" height="202.67"/>
</g>
<rect x="125.33" y="287.17" style="fill:#FFBC36;" width="261.33" height="78"/>
<rect x="255.57" y="287.17" style="fill:#EA9713;" width="131.09" height="78"/>
<g>
</g>
<g>
</g>
<g>
</g>
<g>
</g>
<g>
</g>
<g>
</g>
<g>
</g>
<g>
</g>
<g>
</g>
<g>
</g>
<g>
</g>
<g>
</g>
<g>
</g>
<g>
</g>
<g>
</g>
</svg>
