<?xml version="1.0" encoding="iso-8859-1"?>
<!-- Generator: Adobe Illustrator 19.0.0, SVG Export Plug-In . SVG Version: 6.00 Build 0)  -->
<svg version="1.1" id="Capa_1" xmlns="http://www.w3.org/2000/svg" xmlns:xlink="http://www.w3.org/1999/xlink" x="0px" y="0px"
	 viewBox="0 0 512 512" style="enable-background:new 0 0 512 512;" xml:space="preserve">
<circle style="fill:#FFE45C;" cx="256" cy="256" r="256"/>
<path style="fill:#FFBC36;" d="M511.608,270.107L303,61.5L126.5,191l38.99,38.99L83.5,245.298l39.003,39.003L95.749,404.019
	l101.1,101.1C215.837,509.61,235.638,512,256,512C392.65,512,504.284,404.93,511.608,270.107z"/>
<rect x="294.79" y="223.86" style="fill:#78938C;" width="121.47" height="180.16"/>
<g>
	<rect x="354.38" y="223.86" style="fill:#425E61;" width="61.87" height="180.16"/>
	<rect x="95.75" y="223.86" style="fill:#425E61;" width="34.19" height="180.16"/>
	<rect x="312.14" y="266.73" style="fill:#425E61;" width="87.27" height="46.48"/>
</g>
<rect x="354.38" y="266.73" style="fill:#364849;" width="45.03" height="46.48"/>
<rect x="312.14" y="333.04" style="fill:#425E61;" width="87.27" height="46.48"/>
<rect x="194.75" y="175.5" style="fill:#EADFD6;" width="40" height="31.5"/>
<rect x="215.09" y="175.5" style="fill:#DAD0C7;" width="19.655" height="31.5"/>
<rect x="354.38" y="333.04" style="fill:#364849;" width="45.03" height="46.48"/>
<rect x="137.5" y="72.5" style="fill:#64E1DC;" width="154.5" height="107.5"/>
<rect x="215.09" y="72.5" style="fill:#00C8C8;" width="76.905" height="107.5"/>
<path style="fill:#FFFFFF;" d="M303,191H126.5V61.5H303V191z M148.5,169H281V83.5H148.5V169z"/>
<polygon style="fill:#EADFD6;" points="303,61.5 215.095,61.5 215.095,83.5 281,83.5 281,169 215.095,169 215.095,191 303,191 "/>
<rect x="83.5" y="200.39" style="fill:#425E61;" width="345" height="44.911"/>
<rect x="255.57" y="200.39" style="fill:#364849;" width="172.93" height="44.911"/>
<g>
</g>
<g>
</g>
<g>
</g>
<g>
</g>
<g>
</g>
<g>
</g>
<g>
</g>
<g>
</g>
<g>
</g>
<g>
</g>
<g>
</g>
<g>
</g>
<g>
</g>
<g>
</g>
<g>
</g>
</svg>
