<?xml version="1.0" encoding="iso-8859-1"?>
<!-- Generator: Adobe Illustrator 18.0.0, SVG Export Plug-In . SVG Version: 6.00 Build 0)  -->
<!DOCTYPE svg PUBLIC "-//W3C//DTD SVG 1.1//EN" "http://www.w3.org/Graphics/SVG/1.1/DTD/svg11.dtd">
<svg version="1.1" id="Capa_1" xmlns="http://www.w3.org/2000/svg" xmlns:xlink="http://www.w3.org/1999/xlink" x="0px" y="0px"
	 viewBox="0 0 480.932 480.932" style="enable-background:new 0 0 480.932 480.932;" xml:space="preserve">
<g>
	<path d="M121.071,253.506H359.86c9.121,0,16.541-7.42,16.541-16.541V16.541C376.401,7.42,368.981,0,359.86,0H121.071
		c-9.121,0-16.541,7.42-16.541,16.541v220.424C104.53,246.086,111.95,253.506,121.071,253.506z M317.796,82.64
		c3.905,3.905,3.905,10.237,0,14.143l-98,98c-1.953,1.952-4.512,2.929-7.071,2.929c-2.56,0-5.118-0.977-7.071-2.929
		c-3.905-3.905-3.905-10.237,0-14.143l98-98C307.56,78.735,313.89,78.735,317.796,82.64z M163.135,144.725l97.999-98
		c3.906-3.904,10.236-3.904,14.143,0c3.905,3.905,3.905,10.237,0,14.142l-97.999,98c-1.953,1.952-4.512,2.929-7.071,2.929
		c-2.56,0-5.118-0.977-7.071-2.929C159.23,154.962,159.23,148.63,163.135,144.725z"/>
	<path d="M70.335,297.14v29.922c0,12.966,10.548,23.514,23.513,23.514h5.131L70.547,468.588c-1.294,5.369,2.011,10.771,7.38,12.064
		c0.787,0.19,1.574,0.28,2.35,0.28c4.515,0,8.61-3.078,9.714-7.66l29.559-122.696h110.915v-76.947H93.848
		C80.883,273.628,70.335,284.175,70.335,297.14z M141.466,302.101h21c5.522,0,10,4.478,10,10c0,5.523-4.478,10-10,10h-21
		c-5.523,0-10-4.477-10-10C131.466,306.578,135.944,302.101,141.466,302.101z"/>
	<path d="M410.384,468.588l-28.431-118.013h5.131c12.965,0,23.512-10.548,23.512-23.514V297.14
		c0-12.965-10.547-23.512-23.512-23.512H250.465v76.947h110.916l29.56,122.696c1.104,4.583,5.199,7.66,9.714,7.66
		c0.775,0,1.564-0.091,2.35-0.28C408.374,479.358,411.678,473.957,410.384,468.588z M339.465,322.101h-21c-5.523,0-10-4.477-10-10
		c0-5.522,4.477-10,10-10h21c5.522,0,10,4.478,10,10C349.465,317.623,344.988,322.101,339.465,322.101z"/>
</g>
<g>
</g>
<g>
</g>
<g>
</g>
<g>
</g>
<g>
</g>
<g>
</g>
<g>
</g>
<g>
</g>
<g>
</g>
<g>
</g>
<g>
</g>
<g>
</g>
<g>
</g>
<g>
</g>
<g>
</g>
</svg>
