<?xml version="1.0" encoding="iso-8859-1"?>
<!-- Generator: Adobe Illustrator 19.0.0, SVG Export Plug-In . SVG Version: 6.00 Build 0)  -->
<svg version="1.1" id="Capa_1" xmlns="http://www.w3.org/2000/svg" xmlns:xlink="http://www.w3.org/1999/xlink" x="0px" y="0px"
	 viewBox="0 0 512 512" style="enable-background:new 0 0 512 512;" xml:space="preserve">
<circle style="fill:#FFE45C;" cx="256" cy="256" r="256"/>
<path style="fill:#FFBC36;" d="M155.751,401.575l110.214,110.214c133.545-5.115,240.855-112.51,245.834-246.09L347.24,101.141
	L155.751,401.575z"/>
<ellipse style="fill:#64E1DC;" cx="256" cy="256" rx="131.67" ry="172.67"/>
<path style="fill:#00C8C8;" d="M256,83.333c-0.143,0-0.285,0.006-0.429,0.007v345.32c0.143,0,0.285,0.007,0.429,0.007
	c72.718,0,131.667-77.305,131.667-172.667S328.718,83.333,256,83.333z"/>
<path style="fill:#78938C;" d="M256,449.167c-41.714,0-80.567-20.826-109.404-58.642C119.02,354.361,103.833,306.586,103.833,256
	s15.187-98.361,42.763-134.524C175.433,83.66,214.286,62.833,256,62.833s80.567,20.826,109.404,58.642
	c27.576,36.163,42.763,83.938,42.763,134.524s-15.187,98.361-42.763,134.524C336.567,428.34,297.714,449.167,256,449.167z
	 M256,103.833c-28.626,0-55.901,15.095-76.802,42.503c-22.16,29.062-34.365,68.007-34.365,109.663s12.205,80.602,34.365,109.663
	c20.9,27.409,48.176,42.503,76.802,42.503s55.901-15.095,76.802-42.503c22.16-29.062,34.365-68.007,34.365-109.663
	s-12.205-80.602-34.365-109.663C311.901,118.928,284.626,103.833,256,103.833z"/>
<path style="fill:#425E61;" d="M365.404,121.476C336.567,83.66,297.714,62.833,256,62.833c-0.143,0-0.285,0.006-0.429,0.007v41
	c0.143-0.001,0.286-0.007,0.429-0.007c28.626,0,55.901,15.095,76.802,42.503c22.16,29.062,34.365,68.007,34.365,109.663
	s-12.205,80.602-34.365,109.663c-20.9,27.409-48.176,42.503-76.802,42.503c-0.143,0-0.286-0.006-0.429-0.007v41
	c0.143,0,0.286,0.007,0.429,0.007c41.714,0,80.567-20.826,109.404-58.642c27.576-36.163,42.763-83.938,42.763-134.524
	S392.98,157.639,365.404,121.476z"/>
<rect x="205.248" y="153.97" transform="matrix(-0.7071 -0.7071 0.7071 -0.7071 241.4237 487.8436)" style="fill:#A0F6FA;" width="33" height="79.902"/>
<polygon style="fill:#94F2F7;" points="255.571,171.238 255.571,183.43 261.667,177.334 "/>
<rect x="242.76" y="172.692" transform="matrix(-0.7071 -0.7071 0.7071 -0.7071 275.1825 587.4675)" style="fill:#A0F6FA;" width="33" height="128.099"/>
<polygon style="fill:#64E1DC;" points="292.875,179.791 255.571,217.094 255.571,263.763 316.209,203.126 "/>
<g>
</g>
<g>
</g>
<g>
</g>
<g>
</g>
<g>
</g>
<g>
</g>
<g>
</g>
<g>
</g>
<g>
</g>
<g>
</g>
<g>
</g>
<g>
</g>
<g>
</g>
<g>
</g>
<g>
</g>
</svg>
